<svg width="47" height="12" viewBox="0 0 47 12" fill="none" xmlns="http://www.w3.org/2000/svg">
<path d="M3.576 9.18C3.24 9.18 2.904 9.156 2.568 9.108C2.24 9.068 1.94 8.992 1.668 8.88C1.404 8.76 1.192 8.6 1.032 8.4C0.872 8.192 0.792 7.924 0.792 7.596V0.684H2.544V3.996L2.208 3.432C2.352 3.264 2.536 3.132 2.76 3.036C2.984 2.932 3.212 2.86 3.444 2.82C3.676 2.78 3.868 2.76 4.02 2.76C4.916 2.76 5.596 3.032 6.06 3.576C6.532 4.112 6.768 4.9 6.768 5.94C6.768 6.548 6.688 7.06 6.528 7.476C6.368 7.892 6.144 8.224 5.856 8.472C5.568 8.72 5.232 8.9 4.848 9.012C4.464 9.124 4.04 9.18 3.576 9.18ZM3.552 7.692C3.904 7.692 4.184 7.624 4.392 7.488C4.6 7.344 4.748 7.148 4.836 6.9C4.932 6.652 4.98 6.368 4.98 6.048C4.98 5.592 4.92 5.228 4.8 4.956C4.68 4.684 4.516 4.488 4.308 4.368C4.1 4.248 3.86 4.188 3.588 4.188C3.428 4.188 3.252 4.208 3.06 4.248C2.868 4.288 2.696 4.352 2.544 4.44V7.128C2.544 7.272 2.588 7.384 2.676 7.464C2.764 7.544 2.884 7.604 3.036 7.644C3.196 7.676 3.368 7.692 3.552 7.692ZM10.855 9.18C10.295 9.18 9.79903 9.092 9.36703 8.916C8.93503 8.74 8.59903 8.472 8.35903 8.112C8.11903 7.744 7.99903 7.268 7.99903 6.684V2.928H9.78703V6.54C9.78703 6.924 9.87103 7.212 10.039 7.404C10.215 7.588 10.491 7.68 10.867 7.68C11.251 7.68 11.527 7.588 11.695 7.404C11.863 7.212 11.947 6.924 11.947 6.54V2.928H13.627V6.684C13.627 7.548 13.379 8.18 12.883 8.58C12.387 8.98 11.711 9.18 10.855 9.18ZM18.1101 9.18C17.6381 9.18 17.2021 9.128 16.8021 9.024C16.4101 8.92 16.0701 8.748 15.7821 8.508C15.4941 8.26 15.2661 7.924 15.0981 7.5C14.9381 7.076 14.8581 6.548 14.8581 5.916C14.8581 4.932 15.0981 4.156 15.5781 3.588C16.0661 3.02 16.7941 2.736 17.7621 2.736C17.8901 2.736 18.0581 2.748 18.2661 2.772C18.4741 2.788 18.6901 2.836 18.9141 2.916C19.1381 2.996 19.3381 3.132 19.5141 3.324L19.1541 3.876V0.431999H20.9301V7.416C20.9301 7.712 20.8501 7.972 20.6901 8.196C20.5301 8.412 20.3141 8.592 20.0421 8.736C19.7781 8.88 19.4781 8.988 19.1421 9.06C18.8061 9.14 18.4621 9.18 18.1101 9.18ZM18.1821 7.68C18.4701 7.68 18.7021 7.644 18.8781 7.572C19.0621 7.492 19.1541 7.376 19.1541 7.224V4.428C19.0101 4.348 18.8541 4.288 18.6861 4.248C18.5261 4.2 18.3701 4.176 18.2181 4.176C17.8821 4.176 17.5981 4.232 17.3661 4.344C17.1341 4.456 16.9581 4.644 16.8381 4.908C16.7261 5.172 16.6701 5.528 16.6701 5.976C16.6701 6.328 16.7181 6.632 16.8141 6.888C16.9101 7.136 17.0661 7.332 17.2821 7.476C17.5061 7.612 17.8061 7.68 18.1821 7.68ZM24.8466 9.18C24.2946 9.148 23.8186 9.02 23.4186 8.796C23.0266 8.572 22.7186 8.244 22.4946 7.812C22.2786 7.372 22.1706 6.82 22.1706 6.156C22.1706 5.484 22.2546 4.928 22.4226 4.488C22.5906 4.04 22.8226 3.692 23.1186 3.444C23.4226 3.196 23.7866 3.02 24.2106 2.916C24.6346 2.812 25.1066 2.76 25.6266 2.76C26.1306 2.76 26.5706 2.824 26.9466 2.952C27.3226 3.08 27.6146 3.264 27.8226 3.504C28.0306 3.744 28.1346 4.04 28.1346 4.392V9.072C28.1346 9.496 28.0666 9.868 27.9306 10.188C27.7946 10.516 27.5906 10.788 27.3186 11.004C27.0546 11.228 26.7306 11.396 26.3466 11.508C25.9706 11.62 25.5346 11.676 25.0386 11.676C24.5026 11.676 24.0426 11.636 23.6586 11.556C23.2826 11.484 22.9946 11.392 22.7946 11.28V9.708C22.9146 9.756 23.0906 9.82 23.3226 9.9C23.5546 9.98 23.8146 10.044 24.1026 10.092C24.3906 10.148 24.6786 10.176 24.9666 10.176C25.3426 10.176 25.6306 10.124 25.8306 10.02C26.0386 9.916 26.1826 9.776 26.2626 9.6C26.3426 9.424 26.3826 9.224 26.3826 9V8.016L26.7306 8.268C26.6026 8.452 26.4506 8.612 26.2746 8.748C26.0986 8.884 25.8906 8.988 25.6506 9.06C25.4186 9.14 25.1506 9.18 24.8466 9.18ZM25.3026 7.836C25.5106 7.836 25.7026 7.816 25.8786 7.776C26.0546 7.728 26.2226 7.66 26.3826 7.572V4.788C26.3826 4.62 26.3346 4.492 26.2386 4.404C26.1426 4.316 26.0226 4.256 25.8786 4.224C25.7346 4.192 25.5826 4.176 25.4226 4.176C25.0546 4.176 24.7626 4.256 24.5466 4.416C24.3386 4.576 24.1866 4.8 24.0906 5.088C24.0026 5.368 23.9586 5.688 23.9586 6.048C23.9586 6.6 24.0826 7.036 24.3306 7.356C24.5786 7.676 24.9026 7.836 25.3026 7.836ZM32.3798 9.18C31.7718 9.18 31.2318 9.056 30.7598 8.808C30.2958 8.552 29.9318 8.192 29.6678 7.728C29.4118 7.256 29.2838 6.696 29.2838 6.048C29.2838 4.992 29.5438 4.176 30.0638 3.6C30.5918 3.016 31.3438 2.724 32.3198 2.724C32.9918 2.724 33.5318 2.868 33.9398 3.156C34.3558 3.444 34.6598 3.864 34.8518 4.416C35.0438 4.968 35.1358 5.64 35.1278 6.432H30.5078L30.3158 5.292H33.6518L33.3878 5.856C33.3798 5.208 33.2878 4.752 33.1118 4.488C32.9358 4.224 32.6478 4.092 32.2478 4.092C32.0238 4.092 31.8198 4.148 31.6358 4.26C31.4598 4.372 31.3198 4.56 31.2158 4.824C31.1198 5.08 31.0718 5.436 31.0718 5.892C31.0718 6.468 31.2078 6.912 31.4798 7.224C31.7598 7.536 32.2038 7.692 32.8118 7.692C33.0358 7.692 33.2558 7.668 33.4718 7.62C33.6958 7.564 33.9038 7.5 34.0958 7.428C34.2878 7.356 34.4518 7.292 34.5878 7.236V8.772C34.2998 8.892 33.9758 8.988 33.6158 9.06C33.2638 9.14 32.8518 9.18 32.3798 9.18ZM38.8541 9.24C38.1501 9.24 37.6261 9.076 37.2821 8.748C36.9381 8.412 36.7661 7.94 36.7661 7.332V4.296H35.8781V2.928H36.7661V1.26H38.6381V2.928H39.9701V4.296H38.6381V7.104C38.6381 7.312 38.6821 7.468 38.7701 7.572C38.8581 7.668 39.0061 7.716 39.2141 7.716C39.3341 7.716 39.4661 7.692 39.6101 7.644C39.7541 7.596 39.8741 7.536 39.9701 7.464V9C39.8021 9.088 39.6181 9.148 39.4181 9.18C39.2261 9.22 39.0381 9.24 38.8541 9.24ZM44.2312 2.76C44.7352 2.76 45.1912 2.812 45.5992 2.916C46.0152 3.02 46.3432 3.196 46.5832 3.444C46.8312 3.684 46.9552 4.024 46.9552 4.464V11.34H45.2032V7.944L45.5392 8.508C45.3712 8.716 45.1712 8.868 44.9392 8.964C44.7072 9.06 44.4832 9.12 44.2672 9.144C44.0512 9.168 43.8832 9.18 43.7632 9.18C42.8752 9.18 42.1872 8.912 41.6992 8.376C41.2192 7.84 40.9792 7.076 40.9792 6.084C40.9792 5.452 41.0592 4.924 41.2192 4.5C41.3792 4.068 41.6032 3.728 41.8912 3.48C42.1872 3.224 42.5312 3.04 42.9232 2.928C43.3232 2.816 43.7592 2.76 44.2312 2.76ZM44.2072 4.248C43.8552 4.248 43.5712 4.32 43.3552 4.464C43.1472 4.608 42.9952 4.808 42.8992 5.064C42.8112 5.312 42.7672 5.616 42.7672 5.976C42.7672 6.4 42.8272 6.744 42.9472 7.008C43.0752 7.264 43.2472 7.452 43.4632 7.572C43.6792 7.684 43.9272 7.74 44.2072 7.74C44.3672 7.74 44.5352 7.72 44.7112 7.68C44.8952 7.64 45.0592 7.576 45.2032 7.488V4.8C45.2032 4.672 45.1552 4.568 45.0592 4.488C44.9712 4.408 44.8512 4.348 44.6992 4.308C44.5472 4.268 44.3832 4.248 44.2072 4.248Z" fill="#00A3FF"/>
</svg>
