<svg width="124" height="31" viewBox="0 0 124 31" fill="none" xmlns="http://www.w3.org/2000/svg">
<path d="M7.536 23.48C6.64 23.48 5.744 23.416 4.848 23.288C3.97333 23.1813 3.17333 22.9786 2.448 22.68C1.744 22.36 1.17867 21.9333 0.752 21.4C0.325333 20.8453 0.112 20.1306 0.112 19.256V0.823978H4.784V9.65598L3.888 8.15198C4.272 7.70398 4.76267 7.35198 5.36 7.09598C5.95733 6.81864 6.56533 6.62664 7.184 6.51998C7.80267 6.41331 8.31467 6.35998 8.72 6.35998C11.1093 6.35998 12.9227 7.08531 14.16 8.53598C15.4187 9.96531 16.048 12.0666 16.048 14.84C16.048 16.4613 15.8347 17.8266 15.408 18.936C14.9813 20.0453 14.384 20.9306 13.616 21.592C12.848 22.2533 11.952 22.7333 10.928 23.032C9.904 23.3306 8.77333 23.48 7.536 23.48ZM7.472 19.512C8.41067 19.512 9.15733 19.3306 9.712 18.968C10.2667 18.584 10.6613 18.0613 10.896 17.4C11.152 16.7386 11.28 15.9813 11.28 15.128C11.28 13.912 11.12 12.9413 10.8 12.216C10.48 11.4906 10.0427 10.968 9.488 10.648C8.93333 10.328 8.29333 10.168 7.568 10.168C7.14133 10.168 6.672 10.2213 6.16 10.328C5.648 10.4346 5.18933 10.6053 4.784 10.84V18.008C4.784 18.392 4.90133 18.6906 5.136 18.904C5.37067 19.1173 5.69067 19.2773 6.096 19.384C6.52267 19.4693 6.98133 19.512 7.472 19.512Z" fill="black"/>
<path d="M26.9468 23.48C25.4534 23.48 24.1308 23.2453 22.9788 22.776C21.8268 22.3066 20.9307 21.592 20.2907 20.632C19.6507 19.6506 19.3307 18.3813 19.3307 16.824V6.80798H24.0987V16.44C24.0987 17.464 24.3227 18.232 24.7708 18.744C25.2401 19.2346 25.9761 19.48 26.9788 19.48C28.0028 19.48 28.7388 19.2346 29.1868 18.744C29.6348 18.232 29.8587 17.464 29.8587 16.44V6.80798H34.3387V16.824C34.3387 19.128 33.6774 20.8133 32.3548 21.88C31.0321 22.9466 29.2294 23.48 26.9468 23.48Z" fill="black"/>
<path d="M46.2935 23.48C45.0348 23.48 43.8722 23.3413 42.8055 23.064C41.7602 22.7866 40.8535 22.328 40.0855 21.688C39.3175 21.0266 38.7095 20.1306 38.2615 19C37.8348 17.8693 37.6215 16.4613 37.6215 14.776C37.6215 12.152 38.2615 10.0826 39.5415 8.56798C40.8428 7.05331 42.7842 6.29598 45.3655 6.29598C45.7068 6.29598 46.1548 6.32798 46.7095 6.39198C47.2642 6.43464 47.8402 6.56264 48.4375 6.77598C49.0348 6.98931 49.5682 7.35198 50.0375 7.86398L49.0775 9.33598V0.151978H53.8135V18.776C53.8135 19.5653 53.6002 20.2586 53.1735 20.856C52.7468 21.432 52.1708 21.912 51.4455 22.296C50.7415 22.68 49.9415 22.968 49.0455 23.16C48.1495 23.3733 47.2322 23.48 46.2935 23.48ZM46.4855 19.48C47.2535 19.48 47.8722 19.384 48.3415 19.192C48.8322 18.9786 49.0775 18.6693 49.0775 18.264V10.808C48.6935 10.5946 48.2775 10.4346 47.8295 10.328C47.4028 10.2 46.9868 10.136 46.5815 10.136C45.6855 10.136 44.9282 10.2853 44.3095 10.584C43.6908 10.8826 43.2215 11.384 42.9015 12.088C42.6028 12.792 42.4535 13.7413 42.4535 14.936C42.4535 15.8746 42.5815 16.6853 42.8375 17.368C43.0935 18.0293 43.5095 18.552 44.0855 18.936C44.6828 19.2986 45.4828 19.48 46.4855 19.48Z" fill="black"/>
<path d="M64.2575 23.48C62.7855 23.3946 61.5162 23.0533 60.4495 22.456C59.4042 21.8586 58.5828 20.984 57.9855 19.832C57.4095 18.6586 57.1215 17.1866 57.1215 15.416C57.1215 13.624 57.3455 12.1413 57.7935 10.968C58.2415 9.77331 58.8602 8.84531 59.6495 8.18398C60.4602 7.52264 61.4308 7.05331 62.5615 6.77598C63.6922 6.49864 64.9508 6.35998 66.3375 6.35998C67.6815 6.35998 68.8548 6.53064 69.8575 6.87198C70.8602 7.21331 71.6388 7.70398 72.1935 8.34398C72.7482 8.98398 73.0255 9.77331 73.0255 10.712V23.192C73.0255 24.3226 72.8442 25.3146 72.4815 26.168C72.1188 27.0426 71.5748 27.768 70.8495 28.344C70.1455 28.9413 69.2815 29.3893 68.2575 29.688C67.2548 29.9866 66.0922 30.136 64.7695 30.136C63.3402 30.136 62.1135 30.0293 61.0895 29.816C60.0868 29.624 59.3188 29.3786 58.7855 29.08V24.888C59.1055 25.016 59.5748 25.1866 60.1935 25.4C60.8122 25.6133 61.5055 25.784 62.2735 25.912C63.0415 26.0613 63.8095 26.136 64.5775 26.136C65.5802 26.136 66.3482 25.9973 66.8815 25.72C67.4362 25.4426 67.8202 25.0693 68.0335 24.6C68.2468 24.1306 68.3535 23.5973 68.3535 23V20.376L69.2815 21.048C68.9402 21.5386 68.5348 21.9653 68.0655 22.328C67.5962 22.6906 67.0415 22.968 66.4015 23.16C65.7828 23.3733 65.0682 23.48 64.2575 23.48ZM65.4735 19.896C66.0282 19.896 66.5402 19.8426 67.0095 19.736C67.4788 19.608 67.9268 19.4266 68.3535 19.192V11.768C68.3535 11.32 68.2255 10.9786 67.9695 10.744C67.7135 10.5093 67.3935 10.3493 67.0095 10.264C66.6255 10.1786 66.2202 10.136 65.7935 10.136C64.8122 10.136 64.0335 10.3493 63.4575 10.776C62.9028 11.2026 62.4975 11.8 62.2415 12.568C62.0068 13.3146 61.8895 14.168 61.8895 15.128C61.8895 16.6 62.2202 17.7626 62.8815 18.616C63.5428 19.4693 64.4068 19.896 65.4735 19.896Z" fill="black"/>
<path d="M84.3463 23.48C82.7249 23.48 81.2849 23.1493 80.0263 22.488C78.7889 21.8053 77.8183 20.8453 77.1143 19.608C76.4316 18.3493 76.0902 16.856 76.0902 15.128C76.0902 12.312 76.7836 10.136 78.1702 8.59998C79.5783 7.04265 81.5836 6.26398 84.1862 6.26398C85.9782 6.26398 87.4182 6.64798 88.5062 7.41598C89.6156 8.18398 90.4262 9.30398 90.9382 10.776C91.4502 12.248 91.6956 14.04 91.6742 16.152H79.3542L78.8422 13.112H87.7383L87.0342 14.616C87.0129 12.888 86.7676 11.672 86.2982 10.968C85.8289 10.264 85.0609 9.91198 83.9942 9.91198C83.3969 9.91198 82.8529 10.0613 82.3623 10.36C81.8929 10.6586 81.5196 11.16 81.2422 11.864C80.9862 12.5466 80.8582 13.496 80.8582 14.712C80.8582 16.248 81.2209 17.432 81.9463 18.264C82.6929 19.096 83.8769 19.512 85.4983 19.512C86.0956 19.512 86.6822 19.448 87.2582 19.32C87.8556 19.1706 88.4102 19 88.9222 18.808C89.4342 18.616 89.8716 18.4453 90.2343 18.296V22.392C89.4663 22.712 88.6022 22.968 87.6423 23.16C86.7036 23.3733 85.6049 23.48 84.3463 23.48Z" fill="black"/>
<path d="M101.611 23.64C99.7337 23.64 98.3363 23.2026 97.419 22.328C96.5017 21.432 96.043 20.1733 96.043 18.552V10.456H93.675V6.80798H96.043V2.35998H101.035V6.80798H104.587V10.456H101.035V17.944C101.035 18.4986 101.152 18.9146 101.387 19.192C101.622 19.448 102.016 19.576 102.571 19.576C102.891 19.576 103.243 19.512 103.627 19.384C104.011 19.256 104.331 19.096 104.587 18.904V23C104.139 23.2346 103.648 23.3946 103.115 23.48C102.603 23.5866 102.102 23.64 101.611 23.64Z" fill="black"/>
<path d="M115.95 6.35998C117.294 6.35998 118.51 6.49864 119.598 6.77598C120.707 7.05331 121.582 7.52264 122.222 8.18398C122.883 8.82398 123.214 9.73064 123.214 10.904V29.24H118.542V20.184L119.438 21.688C118.99 22.2426 118.456 22.648 117.838 22.904C117.219 23.16 116.622 23.32 116.046 23.384C115.47 23.448 115.022 23.48 114.702 23.48C112.334 23.48 110.499 22.7653 109.198 21.336C107.918 19.9066 107.278 17.8693 107.278 15.224C107.278 13.5386 107.491 12.1306 107.918 11C108.344 9.84798 108.942 8.94131 109.71 8.27998C110.499 7.59731 111.416 7.10664 112.462 6.80798C113.528 6.50931 114.691 6.35998 115.95 6.35998ZM115.886 10.328C114.947 10.328 114.19 10.52 113.614 10.904C113.059 11.288 112.654 11.8213 112.398 12.504C112.163 13.1653 112.046 13.976 112.046 14.936C112.046 16.0666 112.206 16.984 112.526 17.688C112.867 18.3706 113.326 18.872 113.902 19.192C114.478 19.4906 115.139 19.64 115.886 19.64C116.312 19.64 116.76 19.5866 117.23 19.48C117.72 19.3733 118.158 19.2026 118.542 18.968V11.8C118.542 11.4586 118.414 11.1813 118.158 10.968C117.923 10.7546 117.603 10.5946 117.198 10.488C116.792 10.3813 116.355 10.328 115.886 10.328Z" fill="black"/>
</svg>
