<svg width="25" height="24" viewBox="0 0 25 24" fill="none" xmlns="http://www.w3.org/2000/svg">
<path d="M0.25 12C0.25 12.7364 0.84696 13.3333 1.58333 13.3333H9.58333C10.3197 13.3333 10.9167 12.7364 10.9167 12V1.33333C10.9167 0.59696 10.3197 0 9.58333 0H1.58333C0.84696 0 0.25 0.59696 0.25 1.33333V12ZM0.25 22.6667C0.25 23.4031 0.84696 24 1.58333 24H9.58333C10.3197 24 10.9167 23.4031 10.9167 22.6667V17.3333C10.9167 16.5969 10.3197 16 9.58333 16H1.58333C0.84696 16 0.25 16.5969 0.25 17.3333V22.6667ZM13.5833 22.6667C13.5833 23.4031 14.1803 24 14.9167 24H22.9167C23.6531 24 24.25 23.4031 24.25 22.6667V12C24.25 11.2636 23.6531 10.6667 22.9167 10.6667H14.9167C14.1803 10.6667 13.5833 11.2636 13.5833 12V22.6667ZM14.9167 0C14.1803 0 13.5833 0.59696 13.5833 1.33333V6.66667C13.5833 7.40304 14.1803 8 14.9167 8H22.9167C23.6531 8 24.25 7.40304 24.25 6.66667V1.33333C24.25 0.59696 23.6531 0 22.9167 0H14.9167Z" fill="black"/>
</svg>
