<svg width="24" height="24" viewBox="0 0 24 24" fill="none" xmlns="http://www.w3.org/2000/svg">
<path d="M3.70342 5.03689L0.235172 1.56865L1.80382 0L23.7649 21.961L22.1962 23.5297L18.5248 19.8582C16.6377 21.0547 14.3998 21.7477 12 21.7477C6.01904 21.7477 1.04321 17.4442 0 11.7649C0.484365 9.12789 1.81651 6.78757 3.70342 5.03689ZM15.0585 16.392L13.4347 14.7681C13.0002 14.976 12.5137 15.0925 12 15.0925C10.1622 15.0925 8.6724 13.6026 8.6724 11.7649C8.6724 11.2511 8.78882 10.7646 8.99669 10.3301L7.37286 8.70634C6.79217 9.58308 6.454 10.6345 6.454 11.7649C6.454 14.8278 8.93703 17.3109 12 17.3109C13.1303 17.3109 14.1817 16.9727 15.0585 16.392ZM7.53458 2.62503C8.91754 2.0809 10.4239 1.78205 12 1.78205C17.9809 1.78205 22.9568 6.08547 24 11.7649C23.6537 13.6501 22.8741 15.3837 21.7682 16.8586L17.4869 12.5774C17.5258 12.3122 17.546 12.0408 17.546 11.7649C17.546 8.70186 15.063 6.21884 12 6.21884C11.724 6.21884 11.4526 6.23899 11.1874 6.27793L7.53458 2.62503Z" fill="black"/>
</svg>
