<svg width="24" height="24" viewBox="0 0 24 24" fill="none" xmlns="http://www.w3.org/2000/svg">
<path d="M12 0C18.6274 0 24 5.37258 24 12C24 18.6274 18.6274 24 12 24C5.37258 24 0 18.6274 0 12H2.4C2.4 17.302 6.69806 21.6 12 21.6C17.302 21.6 21.6 17.302 21.6 12C21.6 6.69806 17.302 2.4 12 2.4C8.70026 2.4 5.78936 4.06481 4.06141 6.60029L7.2 6.6V9H0V1.8H2.4L2.39987 4.79902C4.58921 1.8849 8.07448 0 12 0ZM13.2 6L13.1998 11.502L17.0911 15.3941L15.3941 17.0911L10.7998 12.4956L10.8 6H13.2Z" fill="black"/>
</svg>
