<svg width="24" height="24" viewBox="0 0 24 24" fill="none" xmlns="http://www.w3.org/2000/svg">
<path d="M1.21779 17.999C0.679632 17.1007 0.275698 16.1633 0 15.2081C1.21075 14.6128 2.03983 13.3997 2.03983 12C2.03983 10.6014 1.21199 9.38898 0.00273891 8.79318C0.558915 6.86042 1.61509 5.06043 3.1168 3.58917C4.25719 4.30203 5.76199 4.38743 7.01992 3.68754C8.27785 2.98765 8.9535 1.68909 8.88307 0.38094C10.9562 -0.136701 13.1018 -0.118176 15.1168 0.384036C15.0475 1.69114 15.7231 2.9882 16.9801 3.68754C18.238 4.38741 19.7428 4.30203 20.8831 3.58924C21.6036 4.29687 22.244 5.10271 22.7822 6.001C23.3203 6.89928 23.7244 7.83674 24 8.79182C22.7892 9.38715 21.9602 10.6003 21.9602 12C21.9602 13.3987 22.788 14.611 23.9973 15.2068C23.4411 17.1396 22.385 18.9395 20.8832 20.4108C19.7428 19.698 18.238 19.6126 16.9801 20.3124C15.7221 21.0123 15.0466 22.3109 15.1169 23.6191C13.0439 24.1367 10.8983 24.1182 8.88323 23.616C8.95243 22.3088 8.27686 21.0118 7.01992 20.3124C5.76202 19.6126 4.2573 19.6979 3.11692 20.4107C2.39647 19.7031 1.75597 18.8973 1.21779 17.999ZM8.26494 18.2344C9.62373 18.9904 10.5996 20.1856 11.067 21.5572C11.6874 21.6141 12.3119 21.6149 12.9324 21.5591C13.3995 20.1868 14.3756 18.9907 15.735 18.2344C17.0945 17.4779 18.6575 17.2615 20.1244 17.5577C20.4847 17.0677 20.7962 16.546 21.0553 15.9999C20.0564 14.924 19.4701 13.512 19.4701 12C19.4701 10.488 20.0564 9.07608 21.0553 8.00022C20.9257 7.72906 20.7825 7.46237 20.6257 7.2008C20.469 6.93922 20.3009 6.68641 20.122 6.44278C18.6559 6.73834 17.0939 6.52163 15.735 5.76565C14.3762 5.00966 13.4005 3.81433 12.933 2.44281C12.3127 2.38592 11.6881 2.38511 11.0677 2.44085C10.6005 3.81317 9.62436 5.00929 8.26494 5.76565C6.90548 6.52203 5.34254 6.73856 3.87569 6.44231C3.51534 6.93229 3.20382 7.45391 2.94476 8.00006C3.94358 9.07597 4.52988 10.488 4.52988 12C4.52988 13.512 3.94361 14.9239 2.94476 15.9998C3.07438 16.2709 3.21752 16.5376 3.37425 16.7992C3.53096 17.0607 3.69905 17.3135 3.87798 17.5572C5.34418 17.2617 6.9062 17.4784 8.26494 18.2344ZM12 15.5994C9.93723 15.5994 8.26494 13.9879 8.26494 12C8.26494 10.0122 9.93723 8.4006 12 8.4006C14.0629 8.4006 15.735 10.0122 15.735 12C15.735 13.9879 14.0629 15.5994 12 15.5994ZM12 13.1998C12.6876 13.1998 13.245 12.6626 13.245 12C13.245 11.3373 12.6876 10.8002 12 10.8002C11.3124 10.8002 10.755 11.3373 10.755 12C10.755 12.6626 11.3124 13.1998 12 13.1998Z" fill="black"/>
</svg>
