<svg width="383" height="342" viewBox="0 0 383 342" fill="none" xmlns="http://www.w3.org/2000/svg">
<g clip-path="url(#clip0_56_38)">
<path d="M2.14616 76.7413C1.39619 76.9518 0.760499 77.4506 0.378554 78.1283C-0.0033905 78.8061 -0.100412 79.6073 0.108778 80.3563L49.2339 255.46C49.4449 256.209 49.9447 256.843 50.6237 257.224C51.3027 257.606 52.1055 257.702 52.856 257.494L233.956 206.882C234.706 206.671 235.342 206.172 235.724 205.495C236.106 204.817 236.203 204.016 235.994 203.267L186.868 28.1628C186.657 27.4142 186.158 26.7798 185.479 26.3986C184.8 26.0174 183.997 25.9205 183.246 26.1293L2.14616 76.7413Z" fill="#E6E6E6"/>
<path d="M55.1318 249.225L227.709 200.995L180.97 34.3978L8.39319 82.6278L55.1318 249.225Z" fill="white"/>
<path d="M31.2102 104.873C30.0588 105.195 29.584 107.104 30.152 109.128C30.7199 111.153 32.1188 112.538 33.2703 112.216L111.98 90.2194C113.132 89.8976 113.606 87.9887 113.038 85.9643C112.47 83.9399 111.071 82.5546 109.92 82.8764L31.2102 104.873Z" fill="#E6E6E6"/>
<path d="M37.5488 127.467C36.3974 127.789 35.9227 129.698 36.4907 131.722C37.0586 133.747 38.4575 135.132 39.6089 134.81L118.319 112.813C119.47 112.492 119.945 110.583 119.377 108.558C118.809 106.534 117.41 105.148 116.259 105.47L37.5488 127.467Z" fill="#E6E6E6"/>
<path d="M43.8145 149.801C42.6631 150.123 42.1884 152.031 42.7563 154.056C43.3242 156.08 44.7232 157.466 45.8746 157.144L124.584 135.147C125.736 134.825 126.211 132.916 125.643 130.892C125.075 128.867 123.676 127.482 122.524 127.804L43.8145 149.801Z" fill="#E6E6E6"/>
<path d="M50.1532 172.395C49.0018 172.716 48.527 174.625 49.095 176.65C49.6629 178.674 51.0618 180.059 52.2132 179.738L130.923 157.741C132.075 157.419 132.549 155.51 131.981 153.486C131.413 151.461 130.014 150.076 128.863 150.398L50.1532 172.395Z" fill="#E6E6E6"/>
<path d="M149.864 71.9737C149.381 72.1082 148.929 72.3366 148.533 72.6457C148.138 72.9548 147.808 73.3387 147.562 73.7752C147.315 74.2118 147.158 74.6926 147.098 75.19C147.038 75.6875 147.076 76.1919 147.212 76.6744C147.347 77.1569 147.576 77.6081 147.886 78.0021C148.197 78.396 148.582 78.7251 149.019 78.9705C149.457 79.2159 149.939 79.3728 150.437 79.4322C150.936 79.4916 151.441 79.4524 151.924 79.3167L166.639 75.2045C167.614 74.9318 168.442 74.2835 168.938 73.4022C169.435 72.5208 169.561 71.4787 169.287 70.5049C169.014 69.5312 168.365 68.7056 167.482 68.2099C166.599 67.7141 165.554 67.5888 164.579 67.8614L149.864 71.9737Z" fill="#E6E6E6"/>
<path d="M156.08 94.1297C155.597 94.2642 155.144 94.4926 154.749 94.8017C154.354 95.1109 154.024 95.4947 153.778 95.9312C153.531 96.3678 153.374 96.8486 153.313 97.3461C153.253 97.8435 153.292 98.3479 153.428 98.8304C153.563 99.3129 153.792 99.7641 154.102 100.158C154.413 100.552 154.798 100.881 155.235 101.127C155.673 101.372 156.155 101.529 156.653 101.588C157.152 101.648 157.657 101.608 158.14 101.473L172.855 97.3605C173.83 97.0878 174.658 96.4395 175.154 95.5582C175.651 94.6768 175.777 93.6346 175.503 92.6609C175.23 91.6871 174.581 90.8616 173.698 90.3659C172.815 89.8701 171.77 89.7448 170.795 90.0174L156.08 94.1297Z" fill="#E6E6E6"/>
<path d="M162.296 116.286C161.813 116.421 161.361 116.649 160.967 116.959C160.572 117.268 160.243 117.652 159.997 118.088C159.751 118.524 159.593 119.005 159.533 119.502C159.474 119.999 159.512 120.503 159.648 120.985C159.783 121.467 160.012 121.918 160.322 122.312C160.632 122.706 161.016 123.035 161.453 123.28C161.891 123.526 162.372 123.683 162.87 123.743C163.368 123.802 163.873 123.764 164.356 123.629L179.071 119.516C180.046 119.244 180.873 118.596 181.37 117.714C181.867 116.833 181.992 115.791 181.719 114.817C181.446 113.843 180.796 113.018 179.913 112.522C179.03 112.026 177.986 111.901 177.011 112.173L162.296 116.286Z" fill="#E6E6E6"/>
<path d="M168.512 138.442C167.537 138.715 166.711 139.364 166.216 140.245C165.72 141.126 165.595 142.167 165.868 143.14C166.141 144.113 166.789 144.938 167.671 145.434C168.554 145.93 169.597 146.056 170.572 145.785L185.286 141.672C186.261 141.399 187.087 140.75 187.583 139.869C188.079 138.988 188.204 137.947 187.931 136.974C187.658 136.001 187.009 135.176 186.127 134.68C185.245 134.184 184.202 134.058 183.226 134.329L168.512 138.442Z" fill="#E6E6E6"/>
<path d="M174.451 176.846C173.834 177.017 173.258 177.308 172.755 177.702C172.251 178.096 171.831 178.585 171.517 179.141C171.203 179.697 171.002 180.31 170.925 180.944C170.849 181.578 170.898 182.221 171.07 182.835C171.243 183.45 171.535 184.025 171.93 184.527C172.326 185.029 172.816 185.448 173.374 185.761C173.932 186.074 174.546 186.274 175.181 186.349C175.816 186.425 176.46 186.375 177.076 186.202L195.825 180.962C197.068 180.615 198.122 179.789 198.755 178.666C199.388 177.543 199.548 176.215 199.2 174.974C198.852 173.733 198.024 172.681 196.899 172.05C195.774 171.418 194.443 171.258 193.2 171.606L174.451 176.846Z" fill="#00A3FF"/>
<path d="M193.747 157.949L55.0044 196.723L55.3497 197.954L194.092 159.18L193.747 157.949Z" fill="#E6E6E6"/>
<path d="M333.111 323.439L321.984 326.124L306.312 284.564L322.735 280.602L333.111 323.439Z" fill="#E7C3A2"/>
<path d="M302.786 342L302.711 341.689C301.829 338.031 302.437 334.172 304.402 330.961C306.367 327.749 309.528 325.446 313.192 324.558L334.963 319.305L338.38 333.412L302.786 342Z" fill="#282828"/>
<path d="M283.851 331.004L272.404 331.004L266.958 286.933L283.853 286.934L283.851 331.004Z" fill="#E7C3A2"/>
<path d="M286.624 341.934L250.005 341.932V341.613C250.005 337.848 251.504 334.238 254.171 331.577C256.837 328.915 260.455 327.42 264.226 327.42H264.227L286.625 327.42L286.624 341.934Z" fill="#282828"/>
<path d="M266.948 313.8L255.833 181.585L301.846 173.12L302.028 173.087L315.496 181.728L310.808 230.386L332.391 306.248L313.755 311.143L292.138 240.785L287.191 219.39L284.656 247.192L286.538 315.755L266.948 313.8Z" fill="#282828"/>
<path d="M254.408 184.584L254.286 184.43L270.187 64.9426L270.207 64.7861L270.319 64.6741C270.554 64.4402 276.125 58.9458 281.855 58.9458C282.683 58.9458 283.471 58.9249 284.226 58.9057C288.611 58.792 292.075 58.701 296.191 62.8102C300.386 66.9959 314.07 82.2806 314.07 103.215C314.07 123.477 315.918 186.445 315.937 187.079L315.963 187.968L315.216 187.483C315.032 187.364 296.626 175.667 281.19 186.541C276.366 189.939 272.033 191.13 268.327 191.13C259.703 191.13 254.482 184.678 254.408 184.584Z" fill="#00A3FF"/>
<path d="M290.422 49.0866C301.536 43.0228 305.62 29.1147 299.545 18.022C293.469 6.92923 279.534 2.8525 268.42 8.91633C257.306 14.9802 253.222 28.8883 259.297 39.981C265.373 51.0737 279.308 55.1504 290.422 49.0866Z" fill="#E7C3A2"/>
<path d="M244.312 210.263C245.397 209.423 246.285 208.357 246.912 207.138C247.54 205.92 247.892 204.579 247.944 203.209C247.996 201.84 247.746 200.477 247.213 199.214C246.68 197.952 245.875 196.821 244.857 195.902L257.881 165.24L240.828 168.373L231.074 197.01C229.641 198.82 228.923 201.091 229.056 203.394C229.189 205.697 230.164 207.871 231.795 209.505C233.427 211.138 235.603 212.118 237.91 212.258C240.217 212.397 242.495 211.687 244.312 210.263Z" fill="#E7C3A2"/>
<path d="M231.729 186.411L235.923 177.574C235.664 177.418 235.45 177.197 235.304 176.933C231.385 170.156 255.054 113.87 256.631 110.137C256.391 108.106 253.906 86.5892 255.723 79.3364C257.862 70.7984 262.253 66.8193 270.406 66.0312C279.397 65.1884 281.823 77.375 281.846 77.4988L281.855 108.828L271.536 144.892L248.002 192.809L231.729 186.411Z" fill="#00A3FF"/>
<path d="M282.353 37.6254C279.604 37.9824 277.53 35.1749 276.568 32.5797C275.607 29.9844 274.874 26.9631 272.483 25.5612C269.218 23.6459 265.039 25.9495 261.305 25.3176C257.088 24.6039 254.346 20.143 254.131 15.8791C253.916 11.6152 255.616 7.51425 257.284 3.58299L257.866 8.46866C257.789 6.81278 258.138 5.16465 258.88 3.68193C259.623 2.1992 260.735 0.931474 262.108 0L261.358 7.16897C261.828 3.15273 266.164 0.0406931 270.128 0.872982L270.01 5.1445C274.881 4.56641 279.795 3.98751 284.68 4.42793C289.566 4.86835 294.485 6.41111 298.188 9.62234C303.727 14.4259 305.749 22.3354 305.07 29.6275C304.391 36.9195 301.375 43.7699 298.232 50.3874C297.441 52.0524 296.347 53.9312 294.513 54.1433C292.866 54.3338 291.358 52.9591 290.846 51.3844C290.333 49.8097 290.583 48.099 290.89 46.4719C291.354 44.0141 291.938 41.5018 291.502 39.0388C291.066 36.5759 289.291 34.1421 286.803 33.8402C284.316 33.5384 281.771 36.3763 282.967 38.5741L282.353 37.6254Z" fill="#282828"/>
<path d="M382.755 341.986H217.713V340.64H383L382.755 341.986Z" fill="#2A3236"/>
</g>
<defs>
<clipPath id="clip0_56_38">
<rect width="383" height="342" fill="white"/>
</clipPath>
</defs>
</svg>
